# xmcd
#
# Track frame offsets:
# 150
# 11863
# 36831
# 59761
# 92004
# 118587
# 144250
# 166053
# 195594
# 252878
# 271023
#
# Disc length: 4304 seconds
#
#
# Revision: 1
# Processed by: cddbd v1.5.1PL2 Copyright (c) Steve Scherf et al.
# Submitted via: FreeRIP 2.945 
#
DISCID=9010ce0b
DTITLE=Stevie Ray Vaughan - Brotherly Love
DYEAR=1989
DGENRE=Rock
TTITLE0=The House Is Rockin (28 Nov 1989 Albuquerque NM)
TTITLE1=Tightrope (28 Nov 1989 Albuquerque NM)
TTITLE2=Look At Little Sister  (28 Nov 1989 Albuquerque NM)
TTITLE3=Texas Flood  (28 Nov 1989 Albuquerque NM)
TTITLE4=Leave My Girl Alone  (28 Nov 1989 Albuquerque NM)
TTITLE5=Wall Of Denial  (28 Nov 1989 Albuquerque NM
TTITLE6=Superstition (29 Nov 1989 Denver CO)
TTITLE7=Cold Shot (29 Nov 1989 Denver CO)
TTITLE8=Life Without You (29 Nov 1989 Denver CO)
TTITLE9=Crossfire (29 Nov 1989 Denver CO)
TTITLE10=Voodoo Chile (29 Nov 1989 Denver CO)
EXTD=Stevie Ray Vaughn and Double Trouble\nNov 28 1989 In Albuquerque NM\nand Nov 29 1989 in Denver CO
EXTT0=
EXTT1=
EXTT2=
EXTT3=
EXTT4=
EXTT5=
EXTT6=
EXTT7=
EXTT8=
EXTT9=
EXTT10=
PLAYORDER=
